<?xml version="1.0" encoding="utf-8"?>
<!-- Generator: Adobe Illustrator 22.0.0, SVG Export Plug-In . SVG Version: 6.00 Build 0)  -->
<svg version="1.1" id="Layer_1" xmlns="http://www.w3.org/2000/svg" xmlns:xlink="http://www.w3.org/1999/xlink" x="0px" y="0px"
	 viewBox="0 0 276 80" style="enable-background:new 0 0 276 80;" xml:space="preserve">
<style type="text/css">
	.st0{display:none;fill:none;stroke:#000000;stroke-width:5;stroke-miterlimit:10;}
	.st1{fill:#28DDBF;}
</style>
<g>
	<path d="M18.7,46.1l-5,15.3H7.1l16.5-48.5h7.6l16.6,48.5H41l-5.2-15.3H18.7z M34.6,41.2l-4.8-14c-1.1-3.2-1.8-6-2.5-8.9h-0.1
		c-0.7,2.9-1.5,5.8-2.4,8.8l-4.8,14H34.6z"/>
	<path d="M54.4,35.9c0-3.6-0.1-6.6-0.3-9.4h5.6l0.4,5.8h0.1c1.7-3.3,5.8-6.6,11.5-6.6c4.8,0,12.3,2.9,12.3,14.8v20.8h-6.3V41.2
		c0-5.6-2.1-10.3-8.1-10.3c-4.2,0-7.4,3-8.5,6.5c-0.3,0.8-0.4,1.9-0.4,3v21h-6.3V35.9z"/>
	<path d="M113.7,61.3l-0.5-4.4H113c-1.9,2.7-5.7,5.2-10.7,5.2c-7.1,0-10.7-5-10.7-10c0-8.4,7.5-13,21-13v-0.7c0-2.9-0.8-8.1-7.9-8.1
		c-3.2,0-6.6,1-9.1,2.6l-1.4-4.2c2.9-1.9,7.1-3.1,11.4-3.1c10.7,0,13.2,7.3,13.2,14.3v13c0,3,0.1,6,0.6,8.4H113.7z M112.8,43.5
		c-6.9-0.1-14.8,1.1-14.8,7.8c0,4.1,2.7,6,6,6c4.5,0,7.4-2.9,8.4-5.8c0.2-0.6,0.4-1.4,0.4-2V43.5z"/>
	<path d="M128.2,54.9c1.9,1.2,5.2,2.5,8.4,2.5c4.6,0,6.8-2.3,6.8-5.2c0-3-1.8-4.7-6.5-6.4c-6.3-2.2-9.2-5.7-9.2-9.9
		c0-5.6,4.5-10.2,12-10.2c3.5,0,6.6,1,8.6,2.2l-1.6,4.6c-1.4-0.9-3.9-2-7.1-2c-3.7,0-5.8,2.2-5.8,4.8c0,2.9,2.1,4.2,6.6,5.9
		c6,2.3,9.1,5.3,9.1,10.5c0,6.1-4.8,10.4-13,10.4c-3.8,0-7.3-0.9-9.8-2.4L128.2,54.9z"/>
	<path d="M176.9,61.3l-0.5-4.4h-0.2c-1.9,2.7-5.7,5.2-10.7,5.2c-7.1,0-10.7-5-10.7-10c0-8.4,7.5-13,21-13v-0.7
		c0-2.9-0.8-8.1-7.9-8.1c-3.2,0-6.6,1-9.1,2.6l-1.4-4.2c2.9-1.9,7.1-3.1,11.4-3.1c10.7,0,13.2,7.3,13.2,14.3v13c0,3,0.1,6,0.6,8.4
		H176.9z M176,43.5c-6.9-0.1-14.8,1.1-14.8,7.8c0,4.1,2.7,6,6,6c4.5,0,7.4-2.9,8.4-5.8c0.2-0.6,0.4-1.4,0.4-2V43.5z"/>
</g>
<g>
	<path d="M231.7,61c-0.8,0.4-2.7,1-5,1c-5.3,0-8.7-3.6-8.7-8.9c0-5.4,3.7-9.3,9.4-9.3c1.9,0,3.5,0.5,4.4,0.9l-0.7,2.4
		c-0.8-0.4-1.9-0.8-3.7-0.8c-4,0-6.2,3-6.2,6.6c0,4,2.6,6.5,6,6.5c1.8,0,3-0.5,3.9-0.9L231.7,61z"/>
	<path d="M239,39.3c0,1.1-0.8,1.9-2,1.9c-1.1,0-1.9-0.9-1.9-1.9c0-1.1,0.8-2,2-2C238.2,37.4,239,38.2,239,39.3z M235.4,61.7V44.2
		h3.2v17.4H235.4z"/>
	<path d="M247.7,39.2v5h4.5v2.4h-4.5v9.4c0,2.2,0.6,3.4,2.4,3.4c0.8,0,1.4-0.1,1.8-0.2l0.1,2.4c-0.6,0.3-1.6,0.4-2.8,0.4
		c-1.5,0-2.7-0.5-3.4-1.3c-0.9-0.9-1.2-2.5-1.2-4.5v-9.5h-2.7v-2.4h2.7v-4.2L247.7,39.2z"/>
	<path d="M257.2,44.2l3.8,10.3c0.4,1.2,0.8,2.5,1.1,3.6h0.1c0.3-1,0.7-2.4,1.1-3.6l3.5-10.2h3.3l-4.8,12.4c-2.3,6-3.8,9-6,10.9
		c-1.5,1.4-3.1,1.9-3.9,2.1l-0.8-2.7c0.8-0.3,1.8-0.8,2.8-1.5c0.9-0.7,1.9-1.9,2.7-3.5c0.1-0.3,0.3-0.6,0.3-0.8
		c0-0.2-0.1-0.4-0.2-0.8l-6.4-16.1H257.2z"/>
</g>
<g>
	<path d="M59.9,66.6v2.7h2.8v-2.7H64v6.7h-1.2v-3h-2.8v3h-1.2v-6.7H59.9z"/>
	<path d="M66.2,71.2c0,0.9,0.7,1.3,1.5,1.3c0.6,0,1-0.1,1.3-0.2l0.2,0.8c-0.4,0.2-1,0.3-1.7,0.3c-1.6,0-2.5-1-2.5-2.5
		c0-1.3,0.8-2.6,2.4-2.6c1.6,0,2.1,1.3,2.1,2.4c0,0.2,0,0.4,0,0.5H66.2z M68.4,70.4c0-0.5-0.2-1.2-1-1.2c-0.8,0-1.1,0.7-1.1,1.2
		H68.4z"/>
	<path d="M70.5,66.2h1.2v7.1h-1.2V66.2z"/>
	<path d="M73.1,70.1c0-0.6,0-1.2,0-1.6h1.1l0.1,0.7h0c0.4-0.5,0.9-0.9,1.7-0.9c1.1,0,2,1,2,2.5c0,1.8-1.1,2.6-2.2,2.6
		c-0.6,0-1.1-0.3-1.4-0.7h0v2.5h-1.2V70.1z M74.3,71.3c0,0.1,0,0.2,0,0.3c0.1,0.5,0.6,0.9,1.1,0.9c0.8,0,1.2-0.6,1.2-1.6
		c0-0.9-0.4-1.6-1.2-1.6c-0.5,0-1,0.4-1.1,0.9c0,0.1,0,0.2,0,0.3V71.3z"/>
	<path d="M80.3,67.1c0,0.4-0.3,0.7-0.7,0.7c-0.4,0-0.7-0.3-0.7-0.7c0-0.4,0.3-0.7,0.7-0.7C80,66.4,80.3,66.7,80.3,67.1z M79,73.3
		v-4.9h1.2v4.9H79z"/>
	<path d="M81.5,69.9c0-0.6,0-1,0-1.4h1.1l0.1,0.7h0c0.2-0.4,0.8-0.8,1.6-0.8c0.8,0,1.7,0.5,1.7,2.1v2.9h-1.2v-2.7
		c0-0.7-0.3-1.2-0.9-1.2c-0.5,0-0.8,0.3-1,0.7c0,0.1-0.1,0.2-0.1,0.4v2.9h-1.2V69.9z"/>
	<path d="M91.6,72.6c0,1-0.2,1.7-0.7,2.2c-0.5,0.5-1.2,0.6-1.9,0.6c-0.6,0-1.3-0.1-1.7-0.4l0.3-0.9c0.3,0.2,0.8,0.4,1.4,0.4
		c0.8,0,1.4-0.4,1.4-1.5v-0.4h0c-0.3,0.4-0.8,0.7-1.4,0.7c-1.2,0-2.1-1-2.1-2.4c0-1.6,1-2.6,2.2-2.6c0.7,0,1.2,0.4,1.4,0.8h0l0-0.6
		h1.1c0,0.3,0,0.7,0,1.4V72.6z M90.4,70.4c0-0.1,0-0.2,0-0.3c-0.1-0.5-0.5-0.8-1-0.8c-0.7,0-1.2,0.6-1.2,1.6c0,0.8,0.4,1.5,1.2,1.5
		c0.5,0,0.9-0.3,1-0.8c0-0.1,0-0.3,0-0.4V70.4z"/>
	<path d="M96.4,67.2v1.2h1.2v0.9h-1.2v2.1c0,0.6,0.2,0.9,0.6,0.9c0.2,0,0.3,0,0.5,0l0,0.9c-0.2,0.1-0.5,0.1-0.9,0.1
		c-0.5,0-0.8-0.2-1.1-0.4c-0.3-0.3-0.4-0.7-0.4-1.4v-2.3h-0.7v-0.9h0.7v-0.9L96.4,67.2z"/>
	<path d="M98.5,66.2h1.2v2.9h0c0.1-0.2,0.4-0.4,0.6-0.5c0.3-0.1,0.5-0.2,0.8-0.2c0.8,0,1.7,0.5,1.7,2.1v2.9h-1.2v-2.7
		c0-0.7-0.3-1.2-0.9-1.2c-0.5,0-0.8,0.3-1,0.7c0,0.1,0,0.2,0,0.4v2.9h-1.2V66.2z"/>
	<path d="M105.1,71.2c0,0.9,0.7,1.3,1.5,1.3c0.6,0,1-0.1,1.3-0.2l0.2,0.8c-0.4,0.2-1,0.3-1.7,0.3c-1.6,0-2.5-1-2.5-2.5
		c0-1.3,0.8-2.6,2.4-2.6c1.6,0,2.1,1.3,2.1,2.4c0,0.2,0,0.4,0,0.5H105.1z M107.3,70.4c0-0.5-0.2-1.2-1-1.2c-0.8,0-1.1,0.7-1.1,1.2
		H107.3z"/>
	<path d="M115.1,73.2c-0.3,0.1-0.8,0.3-1.4,0.3c-1.5,0-2.5-1-2.5-2.5c0-1.5,1-2.6,2.7-2.6c0.5,0,0.9,0.1,1.2,0.2l-0.2,0.9
		c-0.2-0.1-0.5-0.2-0.9-0.2c-0.9,0-1.5,0.7-1.5,1.6c0,1,0.6,1.6,1.5,1.6c0.4,0,0.7-0.1,1-0.2L115.1,73.2z"/>
	<path d="M117.3,67.1c0,0.4-0.3,0.7-0.7,0.7c-0.4,0-0.7-0.3-0.7-0.7c0-0.4,0.3-0.7,0.7-0.7C117,66.4,117.3,66.7,117.3,67.1z
		 M116,73.3v-4.9h1.2v4.9H116z"/>
	<path d="M120,67.2v1.2h1.2v0.9H120v2.1c0,0.6,0.2,0.9,0.6,0.9c0.2,0,0.3,0,0.5,0l0,0.9c-0.2,0.1-0.5,0.1-0.9,0.1
		c-0.5,0-0.8-0.2-1.1-0.4c-0.3-0.3-0.4-0.7-0.4-1.4v-2.3h-0.7v-0.9h0.7v-0.9L120,67.2z"/>
	<path d="M122.9,68.5l0.9,2.6c0.1,0.3,0.2,0.7,0.3,0.9h0c0.1-0.3,0.2-0.6,0.3-0.9l0.8-2.6h1.3l-1.2,3.3c-0.7,1.8-1.1,2.6-1.7,3.1
		c-0.5,0.4-1,0.6-1.3,0.6l-0.3-1c0.2,0,0.5-0.2,0.7-0.3c0.2-0.1,0.5-0.4,0.7-0.8c0.1-0.1,0.1-0.2,0.1-0.2c0,0,0-0.1-0.1-0.2
		l-1.8-4.5H122.9z"/>
	<path d="M129.2,66.2h1.2v2.9h0c0.3-0.5,0.8-0.8,1.6-0.8c1.2,0,2,1,2,2.5c0,1.7-1.1,2.6-2.2,2.6c-0.6,0-1.2-0.2-1.5-0.8h0l-0.1,0.7
		h-1c0-0.3,0-0.9,0-1.4V66.2z M130.4,71.3c0,0.1,0,0.2,0,0.3c0.1,0.5,0.6,0.9,1.1,0.9c0.8,0,1.2-0.6,1.2-1.6c0-0.9-0.4-1.6-1.2-1.6
		c-0.5,0-1,0.4-1.1,0.9c0,0.1,0,0.2,0,0.3V71.3z"/>
	<path d="M135,70c0-0.7,0-1.1,0-1.6h1.1l0,0.9h0c0.2-0.7,0.8-1,1.3-1c0.1,0,0.2,0,0.3,0v1.1c-0.1,0-0.2,0-0.4,0
		c-0.6,0-1,0.4-1.1,0.9c0,0.1,0,0.2,0,0.4v2.5H135V70z"/>
	<path d="M139.4,71.2c0,0.9,0.7,1.3,1.5,1.3c0.6,0,1-0.1,1.3-0.2l0.2,0.8c-0.4,0.2-1,0.3-1.7,0.3c-1.6,0-2.5-1-2.5-2.5
		c0-1.3,0.8-2.6,2.4-2.6c1.6,0,2.1,1.3,2.1,2.4c0,0.2,0,0.4,0,0.5H139.4z M141.5,70.4c0-0.5-0.2-1.2-1-1.2c-0.8,0-1.1,0.7-1.1,1.2
		H141.5z"/>
	<path d="M147.5,72.2c0,0.4,0,0.9,0.1,1.2h-1.1l-0.1-0.5h0c-0.3,0.4-0.8,0.7-1.4,0.7c-1,0-1.5-0.7-1.5-1.4c0-1.2,1.1-1.8,2.9-1.8
		v-0.1c0-0.3-0.1-0.8-1-0.8c-0.5,0-1,0.1-1.3,0.4l-0.2-0.8c0.4-0.2,1-0.4,1.8-0.4c1.6,0,2,1,2,2.1V72.2z M146.3,71
		c-0.9,0-1.7,0.2-1.7,0.9c0,0.5,0.3,0.7,0.7,0.7c0.5,0,0.8-0.3,1-0.7c0-0.1,0-0.2,0-0.3V71z"/>
	<path d="M150.1,67.2v1.2h1.2v0.9h-1.2v2.1c0,0.6,0.2,0.9,0.6,0.9c0.2,0,0.3,0,0.5,0l0,0.9c-0.2,0.1-0.5,0.1-0.9,0.1
		c-0.5,0-0.8-0.2-1.1-0.4c-0.3-0.3-0.4-0.7-0.4-1.4v-2.3h-0.7v-0.9h0.7v-0.9L150.1,67.2z"/>
	<path d="M152.2,66.2h1.2v2.9h0c0.1-0.2,0.4-0.4,0.6-0.5c0.3-0.1,0.5-0.2,0.8-0.2c0.8,0,1.7,0.5,1.7,2.1v2.9h-1.2v-2.7
		c0-0.7-0.3-1.2-0.9-1.2c-0.5,0-0.8,0.3-1,0.7c0,0.1,0,0.2,0,0.4v2.9h-1.2V66.2z"/>
	<path d="M163.8,72.2c0,0.4,0,0.9,0.1,1.2h-1.1l-0.1-0.5h0c-0.3,0.4-0.8,0.7-1.4,0.7c-1,0-1.5-0.7-1.5-1.4c0-1.2,1.1-1.8,2.9-1.8
		v-0.1c0-0.3-0.1-0.8-1-0.8c-0.5,0-1,0.1-1.3,0.4l-0.2-0.8c0.4-0.2,1-0.4,1.8-0.4c1.6,0,2,1,2,2.1V72.2z M162.6,71
		c-0.9,0-1.7,0.2-1.7,0.9c0,0.5,0.3,0.7,0.7,0.7c0.5,0,0.8-0.3,1-0.7c0-0.1,0-0.2,0-0.3V71z"/>
	<path d="M169.5,72.6c0,1-0.2,1.7-0.7,2.2c-0.5,0.5-1.2,0.6-1.9,0.6c-0.6,0-1.3-0.1-1.7-0.4l0.3-0.9c0.3,0.2,0.8,0.4,1.4,0.4
		c0.8,0,1.4-0.4,1.4-1.5v-0.4h0c-0.3,0.4-0.8,0.7-1.4,0.7c-1.2,0-2.1-1-2.1-2.4c0-1.6,1-2.6,2.2-2.6c0.8,0,1.2,0.4,1.4,0.8h0l0-0.6
		h1.1c0,0.3,0,0.7,0,1.4V72.6z M168.3,70.4c0-0.1,0-0.2,0-0.3c-0.1-0.5-0.5-0.8-1-0.8c-0.7,0-1.2,0.6-1.2,1.6c0,0.8,0.4,1.5,1.2,1.5
		c0.5,0,0.9-0.3,1-0.8c0-0.1,0-0.3,0-0.4V70.4z"/>
	<path d="M174.6,72.2c0,0.4,0,0.9,0.1,1.2h-1.1l-0.1-0.5h0c-0.3,0.4-0.8,0.7-1.4,0.7c-1,0-1.5-0.7-1.5-1.4c0-1.2,1.1-1.8,2.9-1.8
		v-0.1c0-0.3-0.1-0.8-1-0.8c-0.5,0-1,0.1-1.3,0.4l-0.2-0.8c0.4-0.2,1-0.4,1.8-0.4c1.6,0,2,1,2,2.1V72.2z M173.4,71
		c-0.9,0-1.7,0.2-1.7,0.9c0,0.5,0.3,0.7,0.7,0.7c0.5,0,0.8-0.3,1-0.7c0-0.1,0-0.2,0-0.3V71z"/>
	<path d="M177.2,67.1c0,0.4-0.3,0.7-0.7,0.7c-0.4,0-0.7-0.3-0.7-0.7c0-0.4,0.3-0.7,0.7-0.7C176.9,66.4,177.2,66.7,177.2,67.1z
		 M175.9,73.3v-4.9h1.2v4.9H175.9z"/>
	<path d="M178.4,69.9c0-0.6,0-1,0-1.4h1.1l0.1,0.7h0c0.2-0.4,0.8-0.8,1.6-0.8c0.8,0,1.7,0.5,1.7,2.1v2.9h-1.2v-2.7
		c0-0.7-0.3-1.2-0.9-1.2c-0.5,0-0.8,0.3-1,0.7c0,0.1-0.1,0.2-0.1,0.4v2.9h-1.2V69.9z"/>
</g>
<line class="st0" x1="187.4" y1="70.7" x2="213.4" y2="70.7"/>
<line class="st0" x1="187.4" y1="56.3" x2="213.4" y2="56.3"/>
<line class="st0" x1="187.4" y1="41.9" x2="213.4" y2="41.9"/>
<line class="st0" x1="187.4" y1="27.5" x2="213.4" y2="27.5"/>
<path id="Color_Fill_1" class="st1" d="M211,10.4c1.4,1.1,2.8,7.5,3.4,9.8c4.3,15.9,1.7,31.9-9.2,39.9c-2,1.5-4.4,3.4-7.1,4.2
	c-1.9-16.9,1.8-31.9,8.5-43c-6.9,7.3-13.5,28.7-10.6,43.1h-0.2c-2.4-2.9-4.8-5.6-6.4-9.3c-6.5-15.2,5.4-29.4,12.8-37.1L211,10.4z"/>
</svg>
